<svg width="24" height="31" viewBox="0 0 24 31" fill="none" xmlns="http://www.w3.org/2000/svg">
<path d="M0.0800781 7.16005V0.800049H11.1601V30H4.04008V7.16005H0.0800781Z" fill="#83AF38"/>
<path d="M19.7191 30.32C18.5191 30.32 17.5325 29.9734 16.7591 29.2801C16.0125 28.5601 15.6391 27.68 15.6391 26.64C15.6391 25.5734 16.0125 24.68 16.7591 23.96C17.5325 23.24 18.5191 22.88 19.7191 22.88C20.8925 22.88 21.8525 23.24 22.5991 23.96C23.3725 24.68 23.7591 25.5734 23.7591 26.64C23.7591 27.68 23.3725 28.5601 22.5991 29.2801C21.8525 29.9734 20.8925 30.32 19.7191 30.32Z" fill="#83AF38"/>
</svg>
