<svg width="32" height="31" viewBox="0 0 32 31" fill="none" xmlns="http://www.w3.org/2000/svg">
<path d="M0.55998 24.5199C1.46665 23.7999 1.87998 23.4666 1.79998 23.5199C4.41331 21.3599 6.46665 19.5866 7.95998 18.1999C9.47998 16.8132 10.76 15.3599 11.8 13.8399C12.84 12.3199 13.36 10.8399 13.36 9.39991C13.36 8.30658 13.1066 7.45325 12.6 6.83991C12.0933 6.22658 11.3333 5.91991 10.32 5.91991C9.30665 5.91991 8.50665 6.30658 7.91998 7.07991C7.35998 7.82658 7.07998 8.89325 7.07998 10.2799H0.47998C0.533314 8.01325 1.01331 6.11991 1.91998 4.59991C2.85331 3.07991 4.06665 1.95991 5.55998 1.23991C7.07998 0.519912 8.75998 0.159912 10.6 0.159912C13.7733 0.159912 16.16 0.973245 17.76 2.59991C19.3866 4.22658 20.2 6.34658 20.2 8.95991C20.2 11.8132 19.2266 14.4666 17.28 16.9199C15.3333 19.3466 12.8533 21.7199 9.83998 24.0399H20.64V29.5999H0.55998V24.5199Z" fill="#83AF38"/>
<path d="M27.5315 30.3199C26.3315 30.3199 25.3449 29.9732 24.5715 29.2799C23.8249 28.5599 23.4515 27.6799 23.4515 26.6399C23.4515 25.5732 23.8249 24.6799 24.5715 23.9599C25.3449 23.2399 26.3315 22.8799 27.5315 22.8799C28.7049 22.8799 29.6649 23.2399 30.4115 23.9599C31.1849 24.6799 31.5715 25.5732 31.5715 26.6399C31.5715 27.6799 31.1849 28.5599 30.4115 29.2799C29.6649 29.9732 28.7049 30.3199 27.5315 30.3199Z" fill="#83AF38"/>
</svg>
