<svg width="33" height="31" viewBox="0 0 33 31" fill="none" xmlns="http://www.w3.org/2000/svg">
<path d="M1.03993 8.92C1.1466 6.06667 2.07993 3.86667 3.83993 2.32C5.59993 0.773334 7.9866 0 10.9999 0C12.9999 0 14.7066 0.346667 16.1199 1.04C17.5599 1.73333 18.6399 2.68 19.3599 3.88C20.1066 5.08 20.4799 6.42667 20.4799 7.92C20.4799 9.68 20.0399 11.12 19.1599 12.24C18.2799 13.3333 17.2533 14.08 16.0799 14.48V14.64C17.5999 15.1467 18.7999 15.9867 19.6799 17.16C20.5599 18.3333 20.9999 19.84 20.9999 21.68C20.9999 23.3333 20.6133 24.8 19.8399 26.08C19.0933 27.3333 17.9866 28.32 16.5199 29.04C15.0799 29.76 13.3599 30.12 11.3599 30.12C8.15993 30.12 5.59993 29.3333 3.67993 27.76C1.7866 26.1867 0.786598 23.8133 0.679932 20.64H7.31993C7.3466 21.8133 7.67993 22.7467 8.31993 23.44C8.95993 24.1067 9.89326 24.44 11.1199 24.44C12.1599 24.44 12.9599 24.1467 13.5199 23.56C14.1066 22.9467 14.3999 22.1467 14.3999 21.16C14.3999 19.88 13.9866 18.96 13.1599 18.4C12.3599 17.8133 11.0666 17.52 9.27993 17.52H7.99993V11.96H9.27993C10.6399 11.96 11.7333 11.7333 12.5599 11.28C13.4133 10.8 13.8399 9.96 13.8399 8.76C13.8399 7.8 13.5733 7.05333 13.0399 6.52C12.5066 5.98667 11.7733 5.72 10.8399 5.72C9.8266 5.72 9.0666 6.02667 8.55993 6.64C8.07993 7.25333 7.79993 8.01333 7.71993 8.92H1.03993Z" fill="#83AF38"/>
<path d="M28.8987 30.2C27.6987 30.2 26.712 29.8533 25.9387 29.16C25.192 28.44 24.8187 27.56 24.8187 26.52C24.8187 25.4533 25.192 24.56 25.9387 23.84C26.712 23.12 27.6987 22.76 28.8987 22.76C30.072 22.76 31.032 23.12 31.7787 23.84C32.552 24.56 32.9387 25.4533 32.9387 26.52C32.9387 27.56 32.552 28.44 31.7787 29.16C31.032 29.8533 30.072 30.2 28.8987 30.2Z" fill="#83AF38"/>
</svg>
