<svg xmlns="http://www.w3.org/2000/svg" width="15" height="23" viewBox="0 0 15 23">
    <path fill="#435162" fill-rule="evenodd" d="M11.759 22.33H2.808C1.26 22.33 0 20.905 0 19.153V3.177C0 1.425 1.26 0 2.808 0h8.95c1.549 0 2.808 1.425 2.808 3.177v15.976c0 1.752-1.26 3.177-2.807 3.177zm.862-19.412c0-.81-.333-.97-.971-.97H2.91c-.638 0-.972.16-.972.97v1.053h10.683V2.918zm0 2.914H1.938v8.74h10.683v-8.74zm0 10.682H1.938v2.914c0 .81.334.971.972.971h8.74c.638 0 .971-.16.971-.971v-2.914zm-3.885 2.914H5.823c-.455 0-.728.086-.728-.385 0-.47.273-.586.728-.586h2.913c.456 0 .736.115.736.586s-.28.385-.736.385z"/>
</svg>
