<svg width="22" height="22" viewBox="0 0 22 22" fill="none" xmlns="http://www.w3.org/2000/svg">
<path d="M20.1113 13.5065L16.0575 11.7686C15.1737 11.3855 14.1321 11.6403 13.5311 12.3858L12.3983 13.7687C10.5497 12.7057 9.00129 11.1576 7.93995 9.34746L9.32493 8.21306C10.0643 7.60952 10.3194 6.57419 9.94498 5.69284L8.19754 1.58577C7.77813 0.628046 6.73867 0.105426 5.72604 0.33949L1.95913 1.20887C0.973332 1.43427 0.283936 2.29994 0.283936 3.3138C0.283936 13.2997 8.40395 21.4197 18.3899 21.4197C19.4037 21.4197 20.2694 20.7308 20.4581 19.7466L21.3274 15.976C21.6016 14.9596 21.0732 13.9194 20.1113 13.5065ZM19.4343 15.5293L18.5637 19.3028C18.5443 19.3482 18.4766 19.4383 18.3895 19.4383C9.49753 19.4383 2.26506 12.2058 2.26506 3.31384C2.26506 3.2274 2.3186 3.1597 2.40311 3.14034L6.17373 2.27013C6.18663 2.26691 6.20018 2.26561 6.21308 2.26561C6.28466 2.26561 6.35174 2.30884 6.38014 2.37332L8.11973 6.4325C8.15069 6.5054 8.13005 6.59052 8.06813 6.64146L6.05505 8.25558C5.699 8.5471 5.59063 9.0457 5.79316 9.45851C7.15585 12.2338 9.43664 14.5155 12.2124 15.8777C12.588 16.0803 13.1243 15.9719 13.4161 15.6158L15.0678 13.5984C15.1136 13.5404 15.1994 13.5184 15.271 13.552L19.3273 15.2895C19.4054 15.3601 19.4508 15.4468 19.4343 15.5293Z" fill="#83AF38"/>
</svg>
